<?xml version="1.0" encoding="UTF-8" standalone="no"?><!DOCTYPE svg PUBLIC "-//W3C//DTD SVG 1.1//EN" "http://www.w3.org/Graphics/SVG/1.1/DTD/svg11.dtd"><svg width="100%" height="100%" viewBox="0 0 48 95" version="1.1" xmlns="http://www.w3.org/2000/svg" xmlns:xlink="http://www.w3.org/1999/xlink" xml:space="preserve" xmlns:serif="http://www.serif.com/" style="fill-rule:evenodd;clip-rule:evenodd;stroke-linejoin:round;stroke-miterlimit:2;"><g><g><g><g><path d="M14.075,74.297c0,0 -4.255,-0.063 -8.086,-0.12c-1.213,-0.018 -2.321,-0.69 -2.897,-1.757c-0.576,-1.067 -0.529,-2.363 0.121,-3.386c10.615,-16.698 43.885,-69.034 43.885,-69.034l-9.337,42.012l-1.528,6.427l-7.621,0.07l-0.708,5.413" style="fill:#6c63ff;"/><path d="M13.893,74.363c0,0 -4.193,9.337 -6.875,15.307c-0.468,1.044 -0.363,2.255 0.278,3.202c0.641,0.947 1.726,1.495 2.869,1.448c5.666,-0.235 14.354,-0.594 18.405,-0.762c1.344,-0.055 2.519,-0.921 2.971,-2.188c2.336,-6.541 9.524,-26.678 12.705,-35.59c0.357,-0.999 0.211,-2.11 -0.392,-2.984c-0.603,-0.874 -1.59,-1.404 -2.651,-1.424c-5.562,-0.109 -14.203,-0.278 -14.203,-0.278" style="fill:#6c63ff;"/></g></g></g></g></svg>